G04*
G04 #@! TF.GenerationSoftware,Altium Limited,Altium Designer,22.5.1 (42)*
G04*
G04 Layer_Physical_Order=2*
G04 Layer_Color=16711680*
%FSLAX44Y44*%
%MOMM*%
G71*
G04*
G04 #@! TF.SameCoordinates,2238DE84-C422-4DFA-8E31-384DE279FC20*
G04*
G04*
G04 #@! TF.FilePolarity,Positive*
G04*
G01*
G75*
%ADD10C,0.2540*%
%ADD11C,0.2000*%
%ADD12C,0.3000*%
%ADD13C,0.1500*%
%ADD14C,0.4000*%
%ADD15C,0.7000*%
%ADD16C,0.4500*%
%ADD30C,0.6000*%
%ADD31O,1.8000X1.2000*%
%ADD32O,1.7000X2.3000*%
%ADD33R,1.7000X2.3000*%
%ADD34C,4.0000*%
%ADD35C,1.5000*%
%ADD36R,1.5000X1.5000*%
%ADD37R,2.3000X1.7000*%
%ADD38O,2.3000X1.7000*%
%ADD39O,2.5000X3.5000*%
%ADD40O,1.2000X1.8000*%
%ADD41R,2.8000X2.0000*%
%ADD42O,2.8000X2.0000*%
%ADD43C,1.2700*%
%ADD44C,1.0000*%
%ADD45C,0.5000*%
G36*
X1139190Y1035685D02*
X1137920Y1034415D01*
Y635D01*
X5014D01*
X5014D01*
X635D01*
X0Y898D01*
Y1036320D01*
X2540D01*
Y1038225D01*
X1136650D01*
X1139190Y1035685D01*
D02*
G37*
%LPC*%
G36*
X472362Y972810D02*
X467438D01*
X462608Y971849D01*
X458058Y969965D01*
X453964Y967229D01*
X450481Y963746D01*
X447745Y959652D01*
X447018Y957896D01*
X331492D01*
X330765Y959652D01*
X328029Y963746D01*
X324547Y967229D01*
X320452Y969965D01*
X315902Y971849D01*
X311072Y972810D01*
X306148D01*
X301318Y971849D01*
X296768Y969965D01*
X292673Y967229D01*
X289191Y963746D01*
X286455Y959652D01*
X285384Y957066D01*
X169858D01*
X169475Y957992D01*
X166739Y962086D01*
X163256Y965569D01*
X159162Y968305D01*
X154612Y970189D01*
X149782Y971150D01*
X144858D01*
X140028Y970189D01*
X135478Y968305D01*
X131383Y965569D01*
X127901Y962086D01*
X125165Y957992D01*
X123281Y953442D01*
X122320Y948612D01*
Y943688D01*
X123281Y938858D01*
X124008Y937102D01*
X61448Y874542D01*
X59845Y872453D01*
X58837Y870021D01*
X58494Y867410D01*
Y430530D01*
X58494Y430530D01*
Y353060D01*
X58837Y350449D01*
X59845Y348017D01*
X61448Y345928D01*
X86848Y320528D01*
X88937Y318925D01*
X91369Y317917D01*
X93980Y317574D01*
X133550D01*
Y315160D01*
X135964D01*
Y245740D01*
X127050D01*
Y215740D01*
X147883D01*
X148315Y214697D01*
X149918Y212608D01*
X207902Y154624D01*
Y102892D01*
X206146Y102165D01*
X202052Y99429D01*
X198569Y95947D01*
X195833Y91852D01*
X193949Y87302D01*
X192988Y82472D01*
Y77548D01*
X193949Y72718D01*
X195833Y68168D01*
X198569Y64074D01*
X202052Y60591D01*
X206146Y57855D01*
X210696Y55971D01*
X215526Y55010D01*
X220450D01*
X225280Y55971D01*
X229830Y57855D01*
X233925Y60591D01*
X237407Y64074D01*
X240143Y68168D01*
X242027Y72718D01*
X242988Y77548D01*
Y82472D01*
X242027Y87302D01*
X240143Y91852D01*
X237407Y95947D01*
X233925Y99429D01*
X229830Y102165D01*
X228074Y102892D01*
Y154624D01*
X259564Y186114D01*
X309175D01*
X309674Y184471D01*
X311299Y181430D01*
X313486Y178766D01*
X315834Y176839D01*
Y170650D01*
X316177Y168039D01*
X317185Y165607D01*
X318788Y163518D01*
X344658Y137648D01*
X346747Y136045D01*
X349179Y135037D01*
X351790Y134694D01*
X450843D01*
X453453Y135037D01*
X455886Y136045D01*
X457975Y137648D01*
X503288Y182961D01*
X516098D01*
X516569Y182080D01*
X518756Y179416D01*
X521104Y177489D01*
Y136830D01*
X521447Y134220D01*
X522455Y131787D01*
X524058Y129698D01*
X592308Y61448D01*
X594397Y59845D01*
X596829Y58837D01*
X599440Y58494D01*
X785330D01*
Y52080D01*
X788744D01*
Y44450D01*
X789087Y41839D01*
X790095Y39407D01*
X791698Y37318D01*
X815828Y13188D01*
X817917Y11585D01*
X820350Y10577D01*
X822960Y10234D01*
X966470D01*
X969081Y10577D01*
X971513Y11585D01*
X973602Y13188D01*
X1063772Y103358D01*
X1065375Y105447D01*
X1066383Y107879D01*
X1066726Y110490D01*
Y535940D01*
X1066383Y538550D01*
X1065375Y540983D01*
X1063772Y543072D01*
D01*
X1049472Y557372D01*
D01*
X1047874Y558970D01*
X1048360Y560144D01*
X1052830D01*
X1055441Y560487D01*
X1057873Y561495D01*
X1059962Y563098D01*
X1071392Y574528D01*
X1072995Y576617D01*
X1074003Y579049D01*
X1074346Y581660D01*
Y673100D01*
X1074003Y675711D01*
X1072995Y678143D01*
X1071392Y680232D01*
X1027356Y724268D01*
Y730720D01*
X1033770D01*
Y757720D01*
X1029024D01*
X1028593Y758990D01*
X1029898Y759992D01*
X1031095Y761551D01*
X1032062Y762812D01*
X1033422Y766096D01*
X1033886Y769620D01*
X1033422Y773144D01*
X1032062Y776428D01*
X1029898Y779248D01*
X1028269Y780499D01*
D01*
X1027078Y781412D01*
X1026420Y781685D01*
Y782955D01*
X1027078Y783228D01*
X1029898Y785392D01*
X1032062Y788212D01*
X1033422Y791496D01*
X1033886Y795020D01*
X1033422Y798544D01*
X1032062Y801828D01*
X1029898Y804648D01*
X1027078Y806812D01*
X1023794Y808173D01*
X1020270Y808636D01*
X1014270D01*
X1010746Y808173D01*
X1007462Y806812D01*
X1004642Y804648D01*
X1003445Y803089D01*
X929640D01*
X927552Y802814D01*
X925605Y802008D01*
X923934Y800726D01*
X883118Y759909D01*
X853295D01*
X852098Y761468D01*
X849278Y763632D01*
X848620Y763905D01*
Y765175D01*
X849278Y765448D01*
X852098Y767612D01*
X854262Y770432D01*
X855622Y773716D01*
X856087Y777240D01*
X855622Y780764D01*
X854262Y784048D01*
X852098Y786868D01*
X849278Y789032D01*
X848620Y789305D01*
Y790575D01*
X849278Y790848D01*
X852098Y793012D01*
X854262Y795832D01*
X855622Y799116D01*
X856087Y802640D01*
X855622Y806164D01*
X854262Y809448D01*
X852098Y812268D01*
X849278Y814432D01*
X847539Y815153D01*
Y874228D01*
X852796Y879484D01*
X854078Y881155D01*
X854884Y883102D01*
X855159Y885190D01*
Y914545D01*
X856718Y915742D01*
X858882Y918562D01*
X860242Y921846D01*
X860706Y925370D01*
Y931370D01*
X860242Y934894D01*
X858882Y938178D01*
X856718Y940998D01*
X853898Y943162D01*
X850614Y944522D01*
X847090Y944986D01*
X843566Y944522D01*
X840282Y943162D01*
X837462Y940998D01*
X835298Y938178D01*
X835025Y937520D01*
X833755D01*
X833482Y938178D01*
X832569Y939369D01*
D01*
X831318Y940998D01*
X828498Y943162D01*
X825214Y944522D01*
X821690Y944986D01*
X818166Y944522D01*
X814882Y943162D01*
X812062Y940998D01*
X811060Y939693D01*
X809790Y940124D01*
Y942887D01*
Y944870D01*
X782790D01*
Y938456D01*
X769496D01*
X753205Y954747D01*
X751116Y956350D01*
X748683Y957358D01*
X746073Y957701D01*
X655261D01*
X654615Y959262D01*
X651879Y963356D01*
X648397Y966839D01*
X644302Y969575D01*
X639752Y971459D01*
X634922Y972420D01*
X629998D01*
X625168Y971459D01*
X620618Y969575D01*
X616524Y966839D01*
X613041Y963356D01*
X610305Y959262D01*
X609659Y957701D01*
X492863D01*
X492055Y959652D01*
X489319Y963746D01*
X485836Y967229D01*
X481742Y969965D01*
X477192Y971849D01*
X472362Y972810D01*
D02*
G37*
G36*
X1017270Y828489D02*
X1014270D01*
X1012182Y828214D01*
X1010236Y827408D01*
X1008564Y826126D01*
X1007282Y824454D01*
X1006476Y822508D01*
X1006201Y820420D01*
X1006476Y818332D01*
X1007282Y816385D01*
X1008564Y814714D01*
X1010236Y813432D01*
X1012182Y812626D01*
X1014270Y812351D01*
X1017270D01*
X1019358Y812626D01*
X1021304Y813432D01*
X1022976Y814714D01*
X1024258Y816385D01*
X1025064Y818332D01*
X1025339Y820420D01*
X1025064Y822508D01*
X1024258Y824454D01*
X1022976Y826126D01*
X1021304Y827408D01*
X1019358Y828214D01*
X1017270Y828489D01*
D02*
G37*
G36*
X190450Y58010D02*
X185526D01*
X180696Y57049D01*
X176146Y55165D01*
X172052Y52429D01*
X168569Y48946D01*
X165833Y44852D01*
X163949Y40302D01*
X162988Y35472D01*
Y30548D01*
X163949Y25718D01*
X165833Y21168D01*
X168569Y17073D01*
X172052Y13591D01*
X176146Y10855D01*
X180696Y8971D01*
X185526Y8010D01*
X190450D01*
X195280Y8971D01*
X199830Y10855D01*
X203925Y13591D01*
X207407Y17073D01*
X210143Y21168D01*
X212027Y25718D01*
X212988Y30548D01*
Y35472D01*
X212027Y40302D01*
X210143Y44852D01*
X207407Y48946D01*
X203925Y52429D01*
X199830Y55165D01*
X195280Y57049D01*
X190450Y58010D01*
D02*
G37*
%LPD*%
G36*
X447745Y935968D02*
X450481Y931873D01*
X453964Y928391D01*
X458058Y925655D01*
X462608Y923771D01*
X467438Y922810D01*
X472362D01*
X477192Y923771D01*
X481742Y925655D01*
X485836Y928391D01*
X489319Y931873D01*
X492055Y935968D01*
X492701Y937529D01*
X609497D01*
X610305Y935578D01*
X613041Y931484D01*
X616524Y928001D01*
X620618Y925265D01*
X625168Y923381D01*
X629998Y922420D01*
X634922D01*
X639752Y923381D01*
X644302Y925265D01*
X648397Y928001D01*
X651879Y931484D01*
X654615Y935578D01*
X655423Y937529D01*
X741895D01*
X758186Y921238D01*
X760275Y919635D01*
X762707Y918627D01*
X765318Y918284D01*
X782790D01*
Y911870D01*
X809790D01*
Y916616D01*
X811060Y917047D01*
X812062Y915742D01*
X813621Y914545D01*
Y912295D01*
Y889802D01*
X779154Y855336D01*
X777872Y853664D01*
X777066Y851718D01*
X776791Y849630D01*
Y794374D01*
X777066Y792286D01*
X777872Y790340D01*
X779154Y788668D01*
X796288Y771534D01*
X797960Y770252D01*
X799906Y769446D01*
X801994Y769171D01*
X825645D01*
X826842Y767612D01*
X829662Y765448D01*
X830320Y765175D01*
Y763905D01*
X829662Y763632D01*
X826842Y761468D01*
X824678Y758648D01*
X823317Y755364D01*
X822853Y751840D01*
X823317Y748316D01*
X824678Y745032D01*
X826842Y742212D01*
X829662Y740048D01*
X830320Y739775D01*
Y738505D01*
X829662Y738232D01*
X826842Y736068D01*
X824678Y733248D01*
X823317Y729964D01*
X822853Y726440D01*
X823317Y722916D01*
X824678Y719632D01*
X826842Y716812D01*
X829662Y714648D01*
X830320Y714375D01*
Y713105D01*
X829662Y712832D01*
X826842Y710668D01*
X824678Y707848D01*
X823317Y704564D01*
X822853Y701040D01*
X823317Y697516D01*
X824678Y694232D01*
X826842Y691412D01*
X829662Y689248D01*
X830320Y688975D01*
Y687705D01*
X829662Y687432D01*
X826842Y685268D01*
X824678Y682448D01*
X823317Y679164D01*
X822853Y675640D01*
X823317Y672116D01*
X824678Y668832D01*
X826842Y666012D01*
X829662Y663848D01*
X830320Y663575D01*
Y662305D01*
X829662Y662032D01*
X828471Y661119D01*
X826842Y659868D01*
X825645Y658309D01*
X802640D01*
X800552Y658034D01*
X798605Y657228D01*
X796934Y655946D01*
X780424Y639436D01*
X779142Y637765D01*
X778336Y635818D01*
X778061Y633730D01*
Y577850D01*
X778336Y575762D01*
X779142Y573815D01*
X780424Y572144D01*
X814891Y537678D01*
Y492615D01*
X813332Y491418D01*
X811168Y488598D01*
X809808Y485314D01*
X809343Y481790D01*
Y475790D01*
X809808Y472266D01*
X811168Y468982D01*
X813332Y466162D01*
X816152Y463998D01*
X819436Y462637D01*
X822960Y462174D01*
X826484Y462637D01*
X829768Y463998D01*
X832588Y466162D01*
X834752Y468982D01*
X835025Y469640D01*
X836295D01*
X836568Y468982D01*
X837481Y467791D01*
X838732Y466162D01*
X841552Y463998D01*
X844836Y462637D01*
X848360Y462174D01*
X851884Y462637D01*
X855168Y463998D01*
X855527Y464273D01*
X857260Y465603D01*
D01*
X857988Y466162D01*
X858990Y467467D01*
X860260Y467036D01*
Y464273D01*
Y462290D01*
X887260D01*
Y495290D01*
X883846D01*
Y503822D01*
X940168Y560144D01*
X1005850D01*
Y556730D01*
X1021586D01*
X1046554Y531762D01*
Y114668D01*
X962292Y30406D01*
X827138D01*
X808916Y48628D01*
Y52080D01*
X812330D01*
Y85080D01*
X785330D01*
Y78666D01*
X603618D01*
X541276Y141008D01*
Y177489D01*
X543624Y179416D01*
X545811Y182080D01*
X547436Y185121D01*
X548437Y188419D01*
X548775Y191850D01*
Y201850D01*
X548437Y205281D01*
X547436Y208579D01*
X545811Y211619D01*
X543624Y214284D01*
X540960Y216471D01*
X537919Y218096D01*
X534621Y219097D01*
X531190Y219435D01*
X527759Y219097D01*
X524461Y218096D01*
X521421Y216471D01*
X518756Y214284D01*
X516569Y211619D01*
X514944Y208579D01*
X513943Y205281D01*
X513732Y203134D01*
X499110D01*
X496499Y202790D01*
X494067Y201782D01*
X491978Y200180D01*
X446665Y154866D01*
X355968D01*
X336686Y174149D01*
X336006Y174828D01*
Y176839D01*
X338354Y178766D01*
X340541Y181430D01*
X342166Y184471D01*
X343167Y187769D01*
X343505Y191200D01*
Y201200D01*
X343167Y204631D01*
X342166Y207929D01*
X340541Y210970D01*
X338354Y213634D01*
X335690Y215821D01*
X332649Y217446D01*
X329351Y218447D01*
X325920Y218785D01*
X322489Y218447D01*
X319191Y217446D01*
X316150Y215821D01*
X313486Y213634D01*
X311299Y210970D01*
X309674Y207929D01*
X309175Y206286D01*
X255386D01*
X252775Y205943D01*
X250343Y204935D01*
X248254Y203332D01*
X217988Y173066D01*
X167109Y223945D01*
X166793Y226350D01*
X165785Y228783D01*
X165050Y229741D01*
Y245740D01*
X156136D01*
Y315160D01*
X158550D01*
Y319004D01*
Y322600D01*
X159802Y322835D01*
X161448Y319985D01*
X161550Y319882D01*
X163775Y317658D01*
X166625Y316012D01*
X169804Y315160D01*
X173096D01*
X176275Y316012D01*
X179125Y317658D01*
X180134Y318666D01*
X243810D01*
X244391Y317262D01*
X246155Y314965D01*
X248453Y313202D01*
X251128Y312093D01*
X254000Y311715D01*
X256872Y312093D01*
X259547Y313202D01*
X261845Y314965D01*
X263608Y317262D01*
X264717Y319938D01*
X265095Y322810D01*
Y328810D01*
X264717Y331682D01*
X263608Y334357D01*
X261845Y336655D01*
X259547Y338418D01*
X256872Y339527D01*
X254000Y339905D01*
X251128Y339527D01*
X248453Y338418D01*
X246155Y336655D01*
X244734Y334804D01*
X181759D01*
X181453Y335335D01*
X179125Y337663D01*
X176275Y339308D01*
X173096Y340160D01*
X169804D01*
X166625Y339308D01*
X163775Y337663D01*
X161550Y335438D01*
X161448Y335335D01*
X159802Y332485D01*
X158550Y332720D01*
Y336316D01*
Y340160D01*
X133550D01*
Y337746D01*
X98158D01*
X78666Y357238D01*
Y426352D01*
X80706Y428392D01*
X104104Y451790D01*
D01*
X105485Y453171D01*
X106853Y452993D01*
X107385Y451708D01*
X110121Y447613D01*
X113603Y444131D01*
X117698Y441395D01*
X119413Y440685D01*
Y439415D01*
X117698Y438705D01*
X117184Y438361D01*
X113603Y435969D01*
X110121Y432487D01*
X107385Y428392D01*
X105501Y423842D01*
X104540Y419012D01*
Y414088D01*
X105501Y409258D01*
X107385Y404708D01*
X110121Y400614D01*
X113603Y397131D01*
X117698Y394395D01*
X122248Y392511D01*
X127078Y391550D01*
X132002D01*
X136832Y392511D01*
X140605Y394074D01*
X153034Y381644D01*
X154705Y380362D01*
X156652Y379556D01*
X158740Y379281D01*
X287896D01*
X289902Y377742D01*
X292578Y376633D01*
X295450Y376255D01*
X301450D01*
X304322Y376633D01*
X306998Y377742D01*
X309295Y379505D01*
X311059Y381802D01*
X312167Y384478D01*
X312545Y387350D01*
X312233Y389721D01*
X330826Y408314D01*
X332108Y409986D01*
X332914Y411932D01*
X333189Y414020D01*
Y454847D01*
X334928Y455568D01*
X337748Y457732D01*
X339912Y460552D01*
X341273Y463836D01*
X341736Y467360D01*
X341273Y470884D01*
X339912Y474168D01*
X338307Y476260D01*
X337748Y476988D01*
X336443Y477990D01*
X336874Y479260D01*
X341620D01*
Y506260D01*
X333189D01*
Y530860D01*
X332914Y532948D01*
X332108Y534894D01*
X330826Y536566D01*
X307966Y559426D01*
X306294Y560708D01*
X304348Y561514D01*
X302260Y561789D01*
X291804D01*
X289797Y563329D01*
X287122Y564437D01*
X284250Y564815D01*
X278250D01*
X275378Y564437D01*
X272703Y563329D01*
X270696Y561789D01*
X172710D01*
X170622Y561514D01*
X168675Y560708D01*
X167004Y559426D01*
X140605Y533026D01*
X136832Y534589D01*
X132002Y535550D01*
X127078D01*
X122248Y534589D01*
X117698Y532705D01*
X113603Y529969D01*
X110121Y526487D01*
X107385Y522392D01*
X105501Y517842D01*
X104540Y513012D01*
Y508088D01*
X105501Y503258D01*
X107385Y498708D01*
X110121Y494613D01*
X113603Y491131D01*
X117184Y488739D01*
X117698Y488395D01*
X119413Y487685D01*
Y486415D01*
X117698Y485705D01*
X117184Y485361D01*
X113603Y482969D01*
X110121Y479487D01*
X107385Y475392D01*
X106658Y473636D01*
X101600D01*
X98989Y473293D01*
X96557Y472285D01*
X94468Y470682D01*
X81438Y457652D01*
D01*
X79840Y456054D01*
X78666Y456540D01*
Y458800D01*
Y863232D01*
X138272Y922838D01*
X140028Y922111D01*
X144858Y921150D01*
X149782D01*
X154612Y922111D01*
X159162Y923995D01*
X163256Y926731D01*
X166739Y930213D01*
X169475Y934308D01*
X170546Y936894D01*
X286072D01*
X286455Y935968D01*
X289191Y931873D01*
X292673Y928391D01*
X296768Y925655D01*
X301318Y923771D01*
X306148Y922810D01*
X311072D01*
X315902Y923771D01*
X320452Y925655D01*
X324547Y928391D01*
X328029Y931873D01*
X330765Y935968D01*
X331492Y937724D01*
X447018D01*
X447745Y935968D01*
D02*
G37*
G36*
X1004642Y759992D02*
X1005947Y758990D01*
X1005516Y757720D01*
X1000770D01*
Y757720D01*
Y730720D01*
X1007184D01*
Y720090D01*
X1007527Y717479D01*
X1008535Y715047D01*
X1010138Y712958D01*
X1054174Y668922D01*
Y585838D01*
X1048652Y580316D01*
X1038850D01*
Y583730D01*
X1034104D01*
X1033673Y585000D01*
X1034978Y586002D01*
X1037142Y588822D01*
X1038503Y592106D01*
X1038967Y595630D01*
X1038503Y599154D01*
X1037142Y602438D01*
X1034978Y605258D01*
X1032158Y607422D01*
X1031500Y607695D01*
Y608965D01*
X1032158Y609238D01*
X1034978Y611402D01*
X1037142Y614222D01*
X1038503Y617506D01*
X1038967Y621030D01*
X1038503Y624554D01*
X1037142Y627838D01*
X1034978Y630658D01*
X1032158Y632822D01*
X1028874Y634183D01*
X1025350Y634646D01*
X1019350D01*
X1015826Y634183D01*
X1012542Y632822D01*
X1009722Y630658D01*
X1008525Y629099D01*
X962192D01*
X884546Y706746D01*
X882875Y708028D01*
X880928Y708834D01*
X878840Y709109D01*
X853295D01*
X852098Y710668D01*
X849278Y712832D01*
X848620Y713105D01*
Y714375D01*
X849278Y714648D01*
X852098Y716812D01*
X853295Y718371D01*
X894080D01*
X896168Y718646D01*
X898114Y719452D01*
X899786Y720734D01*
X940602Y761551D01*
X1003445D01*
X1004642Y759992D01*
D02*
G37*
%LPC*%
G36*
X472362Y917810D02*
X467438D01*
X462608Y916849D01*
X458058Y914965D01*
X453964Y912229D01*
X450481Y908746D01*
X447745Y904652D01*
X445861Y900102D01*
X444900Y895272D01*
Y890348D01*
X445861Y885518D01*
X447745Y880968D01*
X450481Y876873D01*
X453964Y873391D01*
X458058Y870655D01*
X461831Y869092D01*
Y858052D01*
X399424Y795646D01*
X398142Y793975D01*
X397336Y792028D01*
X397061Y789940D01*
Y764395D01*
X395502Y763198D01*
X394251Y761569D01*
D01*
X393338Y760378D01*
X393065Y759720D01*
X391795D01*
X391522Y760378D01*
X390609Y761569D01*
D01*
X389358Y763198D01*
X387799Y764395D01*
Y787400D01*
X387524Y789488D01*
X386718Y791434D01*
X385436Y793106D01*
X316679Y861862D01*
Y869092D01*
X320452Y870655D01*
X324547Y873391D01*
X328029Y876873D01*
X330765Y880968D01*
X332649Y885518D01*
X333610Y890348D01*
Y895272D01*
X332649Y900102D01*
X330765Y904652D01*
X328029Y908746D01*
X324547Y912229D01*
X320452Y914965D01*
X315902Y916849D01*
X311072Y917810D01*
X306148D01*
X301318Y916849D01*
X296768Y914965D01*
X292673Y912229D01*
X289191Y908746D01*
X286455Y904652D01*
X284571Y900102D01*
X283610Y895272D01*
Y890348D01*
X284571Y885518D01*
X286455Y880968D01*
X289191Y876873D01*
X292673Y873391D01*
X296768Y870655D01*
X300541Y869092D01*
Y858520D01*
X300816Y856432D01*
X301622Y854485D01*
X302904Y852814D01*
X371661Y784058D01*
Y764395D01*
X370102Y763198D01*
X368851Y761569D01*
D01*
X367938Y760378D01*
X367665Y759720D01*
X366395D01*
X366122Y760378D01*
X365209Y761569D01*
D01*
X363958Y763198D01*
X362399Y764395D01*
Y773430D01*
X362124Y775518D01*
X361318Y777465D01*
X360036Y779136D01*
X242316Y896856D01*
X240644Y898138D01*
X238698Y898944D01*
X236610Y899219D01*
X171038D01*
X169475Y902992D01*
X166739Y907087D01*
X163256Y910569D01*
X159162Y913305D01*
X154612Y915189D01*
X149782Y916150D01*
X144858D01*
X140028Y915189D01*
X135478Y913305D01*
X131383Y910569D01*
X127901Y907087D01*
X125165Y902992D01*
X123281Y898442D01*
X122320Y893612D01*
Y888688D01*
X123281Y883858D01*
X125165Y879308D01*
X127901Y875213D01*
X131383Y871731D01*
X135478Y868995D01*
X140028Y867111D01*
X144858Y866150D01*
X149782D01*
X154612Y867111D01*
X159162Y868995D01*
X163256Y871731D01*
X166739Y875213D01*
X169475Y879308D01*
X171038Y883081D01*
X233268D01*
X346261Y770088D01*
Y764395D01*
X344702Y763198D01*
X342538Y760378D01*
X341817Y758639D01*
X285564D01*
X283557Y760179D01*
X280882Y761287D01*
X278010Y761665D01*
X272010D01*
X269138Y761287D01*
X266463Y760179D01*
X264165Y758415D01*
X262402Y756117D01*
X261293Y753442D01*
X260915Y750570D01*
X261293Y747698D01*
X262402Y745023D01*
X264165Y742725D01*
X266463Y740962D01*
X269138Y739853D01*
X272010Y739475D01*
X278010D01*
X280882Y739853D01*
X283557Y740962D01*
X285564Y742501D01*
X341817D01*
X342538Y740762D01*
X344702Y737942D01*
X347522Y735778D01*
X350806Y734417D01*
X354330Y733953D01*
X357854Y734417D01*
X361138Y735778D01*
X363958Y737942D01*
X364391Y738505D01*
X365209Y739571D01*
D01*
X366122Y740762D01*
X366395Y741420D01*
X367665D01*
X367938Y740762D01*
X368851Y739571D01*
D01*
X370102Y737942D01*
X371661Y736745D01*
Y729782D01*
X334478Y692599D01*
X284294D01*
X282287Y694138D01*
X279612Y695247D01*
X276740Y695625D01*
X270740D01*
X267868Y695247D01*
X265193Y694138D01*
X262895Y692375D01*
X261131Y690078D01*
X260023Y687402D01*
X259645Y684530D01*
X260023Y681658D01*
X261131Y678982D01*
X262895Y676685D01*
X265193Y674921D01*
X267868Y673813D01*
X270740Y673435D01*
X276740D01*
X279612Y673813D01*
X282287Y674921D01*
X284294Y676461D01*
X337820D01*
X339908Y676736D01*
X341855Y677542D01*
X343526Y678824D01*
X385436Y720734D01*
X386718Y722405D01*
X387524Y724352D01*
X387799Y726440D01*
Y736745D01*
X389358Y737942D01*
X389791Y738505D01*
X390609Y739571D01*
D01*
X391522Y740762D01*
X391795Y741420D01*
X393065D01*
X393338Y740762D01*
X394251Y739571D01*
D01*
X395502Y737942D01*
X398322Y735778D01*
X401606Y734417D01*
X404314Y734061D01*
X457011Y681364D01*
X458682Y680082D01*
X460628Y679276D01*
X462716Y679001D01*
X522156D01*
X524163Y677461D01*
X526838Y676353D01*
X529710Y675975D01*
X535710D01*
X538582Y676353D01*
X541257Y677461D01*
X543555Y679225D01*
X545318Y681523D01*
X546427Y684198D01*
X546805Y687070D01*
X546427Y689942D01*
X545318Y692617D01*
X543555Y694915D01*
X541257Y696678D01*
X538582Y697787D01*
X535710Y698165D01*
X529710D01*
X526838Y697787D01*
X524163Y696678D01*
X522156Y695139D01*
X466059D01*
X429899Y731298D01*
X428301Y732897D01*
X428787Y734070D01*
X444030D01*
Y742501D01*
X522156D01*
X524163Y740962D01*
X526838Y739853D01*
X529710Y739475D01*
X535710D01*
X538582Y739853D01*
X541257Y740962D01*
X543555Y742725D01*
X545318Y745023D01*
X546427Y747698D01*
X546805Y750570D01*
X546427Y753442D01*
X545318Y756117D01*
X543555Y758415D01*
X541257Y760179D01*
X538582Y761287D01*
X535710Y761665D01*
X529710D01*
X526838Y761287D01*
X524163Y760179D01*
X522156Y758639D01*
X444030D01*
Y767070D01*
X438599D01*
Y768818D01*
X439851Y770070D01*
X461216Y791434D01*
D01*
X461277Y791496D01*
X462793Y793012D01*
D01*
X462887Y793106D01*
X465613Y795832D01*
D01*
X468326Y798544D01*
X471609Y801828D01*
D01*
X471789Y802008D01*
X474430Y804648D01*
D01*
X475946Y806164D01*
X522403Y852622D01*
D01*
X522596Y852814D01*
X533013Y863232D01*
D01*
X535931Y866150D01*
X554132Y884351D01*
X608742D01*
X610305Y880578D01*
X613041Y876484D01*
X616524Y873001D01*
X620618Y870265D01*
X625168Y868381D01*
X629998Y867420D01*
X634922D01*
X639752Y868381D01*
X644302Y870265D01*
X648397Y873001D01*
X651879Y876484D01*
X654615Y880578D01*
X656499Y885128D01*
X657460Y889958D01*
Y894882D01*
X656499Y899712D01*
X654615Y904262D01*
X651879Y908357D01*
X648397Y911839D01*
X644302Y914575D01*
X639752Y916459D01*
X634922Y917420D01*
X629998D01*
X625168Y916459D01*
X620618Y914575D01*
X616524Y911839D01*
X613041Y908357D01*
X610305Y904262D01*
X608742Y900489D01*
X550790D01*
X548702Y900214D01*
X546755Y899408D01*
X545084Y898126D01*
X424824Y777866D01*
X423542Y776195D01*
X422736Y774248D01*
X422461Y772160D01*
Y767070D01*
X417030D01*
Y762324D01*
X415760Y761893D01*
X414758Y763198D01*
X413199Y764395D01*
Y766645D01*
Y786598D01*
X475606Y849004D01*
X476888Y850676D01*
X477694Y852622D01*
X477969Y854710D01*
Y869092D01*
X481742Y870655D01*
X485836Y873391D01*
X489319Y876873D01*
X492055Y880968D01*
X493939Y885518D01*
X494900Y890348D01*
Y895272D01*
X493939Y900102D01*
X492055Y904652D01*
X489319Y908746D01*
X485836Y912229D01*
X481742Y914965D01*
X477192Y916849D01*
X472362Y917810D01*
D02*
G37*
G36*
X673020Y660114D02*
X465746D01*
Y509350D01*
X673020D01*
Y660114D01*
D02*
G37*
G36*
X672299Y494256D02*
X462360D01*
Y450930D01*
X672299D01*
Y494256D01*
D02*
G37*
G36*
X947190Y458135D02*
X941190D01*
X938318Y457757D01*
X935643Y456648D01*
X933636Y455109D01*
X927100D01*
X925012Y454834D01*
X923065Y454028D01*
X921394Y452746D01*
X909964Y441316D01*
X908682Y439645D01*
X907876Y437698D01*
X907601Y435610D01*
Y345440D01*
X907876Y343352D01*
X908682Y341405D01*
X909964Y339734D01*
X956664Y293035D01*
Y287830D01*
X957128Y284306D01*
X958488Y281022D01*
X960652Y278202D01*
X962211Y277005D01*
Y144772D01*
X902379Y84940D01*
X900430Y85197D01*
X896906Y84733D01*
X893622Y83372D01*
X890802Y81208D01*
X888638Y78388D01*
X888365Y77730D01*
X887095D01*
X886822Y78388D01*
X884658Y81208D01*
X883099Y82405D01*
Y97790D01*
X882824Y99878D01*
X882018Y101825D01*
X880736Y103496D01*
X819599Y164632D01*
Y280680D01*
X825030D01*
Y313680D01*
X798030D01*
Y308934D01*
X796760Y308503D01*
X795758Y309808D01*
X792938Y311972D01*
X789654Y313333D01*
X786130Y313797D01*
X782606Y313333D01*
X779322Y311972D01*
X776502Y309808D01*
X774338Y306988D01*
X772978Y303704D01*
X772514Y300180D01*
Y294180D01*
X772978Y290656D01*
X774338Y287372D01*
X776502Y284552D01*
X778061Y283355D01*
Y161290D01*
X778336Y159202D01*
X779142Y157255D01*
X780424Y155584D01*
X841561Y94448D01*
Y82405D01*
X840002Y81208D01*
X837838Y78388D01*
X836478Y75104D01*
X836013Y71580D01*
Y65580D01*
X836478Y62056D01*
X837838Y58772D01*
X840002Y55952D01*
X842822Y53788D01*
X846106Y52428D01*
X849630Y51964D01*
X853154Y52428D01*
X856438Y53788D01*
X859258Y55952D01*
X861422Y58772D01*
X861695Y59430D01*
X862965D01*
X863238Y58772D01*
X864151Y57581D01*
X865402Y55952D01*
X868222Y53788D01*
X871506Y52428D01*
X875030Y51964D01*
X878554Y52428D01*
X881838Y53788D01*
X884658Y55952D01*
X886822Y58772D01*
X887095Y59430D01*
X888365D01*
X888638Y58772D01*
X889551Y57581D01*
X890802Y55952D01*
X893622Y53788D01*
X896906Y52428D01*
X900430Y51964D01*
X903954Y52428D01*
X907238Y53788D01*
X910058Y55952D01*
X912222Y58772D01*
X912495Y59430D01*
X913765D01*
X914038Y58772D01*
X914951Y57581D01*
X916202Y55952D01*
X919022Y53788D01*
X922306Y52428D01*
X925830Y51964D01*
X929354Y52428D01*
X932638Y53788D01*
X935458Y55952D01*
X937622Y58772D01*
X938982Y62056D01*
X939446Y65580D01*
Y71580D01*
X939190Y73529D01*
X1001386Y135724D01*
X1002668Y137395D01*
X1003474Y139342D01*
X1003749Y141430D01*
Y274330D01*
X1009180D01*
Y295919D01*
X1026586Y313324D01*
X1027868Y314995D01*
X1028674Y316942D01*
X1028949Y319030D01*
Y349603D01*
X1029427Y349801D01*
X1031725Y351565D01*
X1033488Y353862D01*
X1034597Y356538D01*
X1034975Y359410D01*
X1034597Y362282D01*
X1033488Y364958D01*
X1031725Y367255D01*
X1029427Y369019D01*
X1026752Y370127D01*
X1023880Y370505D01*
X1017880D01*
X1015008Y370127D01*
X1012333Y369019D01*
X1010035Y367255D01*
X1008271Y364958D01*
X1007163Y362282D01*
X1006785Y359410D01*
X1007163Y356538D01*
X1008271Y353862D01*
X1010035Y351565D01*
X1012333Y349801D01*
X1012811Y349603D01*
Y322372D01*
X997769Y307330D01*
X982180D01*
Y302584D01*
X980910Y302153D01*
X979908Y303458D01*
X979180Y304017D01*
D01*
X977088Y305622D01*
X973804Y306982D01*
X970280Y307446D01*
X966756Y306982D01*
X965895Y306626D01*
X923739Y348782D01*
Y432268D01*
X930442Y438971D01*
X933636D01*
X935643Y437431D01*
X938318Y436323D01*
X941190Y435945D01*
X947190D01*
X950062Y436323D01*
X952737Y437431D01*
X955035Y439195D01*
X956798Y441493D01*
X957907Y444168D01*
X958285Y447040D01*
X957907Y449912D01*
X956798Y452588D01*
X955035Y454885D01*
X952737Y456648D01*
X950062Y457757D01*
X947190Y458135D01*
D02*
G37*
G36*
X1023190D02*
X1017190D01*
X1014318Y457757D01*
X1011643Y456648D01*
X1009345Y454885D01*
X1007582Y452588D01*
X1006473Y449912D01*
X1006095Y447040D01*
X1006473Y444168D01*
X1007582Y441493D01*
X1009345Y439195D01*
X1011643Y437431D01*
X1011931Y437312D01*
Y415015D01*
X1011263Y414739D01*
X1008965Y412975D01*
X1007202Y410677D01*
X1006093Y408002D01*
X1005715Y405130D01*
X1006093Y402258D01*
X1007202Y399582D01*
X1008965Y397285D01*
X1011263Y395522D01*
X1013938Y394413D01*
X1016810Y394035D01*
X1022810D01*
X1025682Y394413D01*
X1028357Y395522D01*
X1030655Y397285D01*
X1032419Y399582D01*
X1033527Y402258D01*
X1033905Y405130D01*
X1033527Y408002D01*
X1032419Y410677D01*
X1030655Y412975D01*
X1028357Y414739D01*
X1028069Y414858D01*
Y437155D01*
X1028737Y437431D01*
X1031035Y439195D01*
X1032798Y441493D01*
X1033907Y444168D01*
X1034285Y447040D01*
X1033907Y449912D01*
X1032798Y452588D01*
X1031035Y454885D01*
X1028737Y456648D01*
X1026062Y457757D01*
X1023190Y458135D01*
D02*
G37*
G36*
X554990Y391267D02*
X551466Y390802D01*
X548182Y389442D01*
X545362Y387278D01*
X544360Y385973D01*
X543090Y386404D01*
Y389167D01*
Y391150D01*
X516090D01*
Y382719D01*
X509270D01*
X507182Y382444D01*
X505235Y381638D01*
X503564Y380356D01*
X370214Y247006D01*
X368932Y245334D01*
X368126Y243388D01*
X367851Y241300D01*
Y216730D01*
X366151Y215821D01*
X363486Y213634D01*
X361299Y210970D01*
X359674Y207929D01*
X358673Y204631D01*
X358335Y201200D01*
Y191200D01*
X358673Y187769D01*
X359674Y184471D01*
X361299Y181430D01*
X363486Y178766D01*
X366151Y176579D01*
X369191Y174954D01*
X372489Y173953D01*
X375920Y173615D01*
X379351Y173953D01*
X382649Y174954D01*
X385690Y176579D01*
X388354Y178766D01*
X390541Y181430D01*
X392166Y184471D01*
X393167Y187769D01*
X393505Y191200D01*
Y201200D01*
X393167Y204631D01*
X392166Y207929D01*
X390541Y210970D01*
X388354Y213634D01*
X385690Y215821D01*
X383989Y216730D01*
Y237958D01*
X512612Y366581D01*
X516090D01*
Y358150D01*
X543090D01*
Y362896D01*
X544360Y363327D01*
X545362Y362022D01*
X546921Y360825D01*
Y358575D01*
Y345440D01*
X547196Y343352D01*
X548002Y341405D01*
X549284Y339734D01*
X573121Y315898D01*
Y217380D01*
X571421Y216471D01*
X568756Y214284D01*
X566569Y211619D01*
X564944Y208579D01*
X563943Y205281D01*
X563605Y201850D01*
Y191850D01*
X563943Y188419D01*
X564944Y185121D01*
X566569Y182080D01*
X568756Y179416D01*
X571421Y177229D01*
X574461Y175604D01*
X577759Y174603D01*
X581190Y174265D01*
X584621Y174603D01*
X587919Y175604D01*
X590960Y177229D01*
X593624Y179416D01*
X595811Y182080D01*
X597436Y185121D01*
X598437Y188419D01*
X598775Y191850D01*
Y201850D01*
X598437Y205281D01*
X597436Y208579D01*
X595811Y211619D01*
X593624Y214284D01*
X590960Y216471D01*
X589259Y217380D01*
Y319240D01*
X588984Y321328D01*
X588178Y323274D01*
X586896Y324946D01*
X563059Y348782D01*
Y360825D01*
X564618Y362022D01*
X566782Y364842D01*
X568143Y368126D01*
X568606Y371650D01*
Y377650D01*
X568143Y381174D01*
X566782Y384458D01*
X564618Y387278D01*
X561798Y389442D01*
X558514Y390802D01*
X554990Y391267D01*
D02*
G37*
G36*
X946810Y416225D02*
X940810D01*
X937938Y415847D01*
X935263Y414739D01*
X932965Y412975D01*
X931201Y410677D01*
X930093Y408002D01*
X929715Y405130D01*
X930093Y402258D01*
X931201Y399582D01*
X932965Y397285D01*
X935263Y395522D01*
X936276Y395102D01*
Y368975D01*
X934035Y367255D01*
X932271Y364958D01*
X931163Y362282D01*
X930785Y359410D01*
X931163Y356538D01*
X932271Y353862D01*
X934035Y351565D01*
X936332Y349801D01*
X939008Y348693D01*
X941880Y348315D01*
X947880D01*
X950752Y348693D01*
X953428Y349801D01*
X955725Y351565D01*
X957488Y353862D01*
X958597Y356538D01*
X958975Y359410D01*
X958597Y362282D01*
X957488Y364958D01*
X955725Y367255D01*
X953428Y369019D01*
X952414Y369438D01*
Y395565D01*
X954655Y397285D01*
X956419Y399582D01*
X957527Y402258D01*
X957905Y405130D01*
X957527Y408002D01*
X956419Y410677D01*
X954655Y412975D01*
X952357Y414739D01*
X949682Y415847D01*
X946810Y416225D01*
D02*
G37*
G36*
X476250Y235399D02*
X474162Y235124D01*
X472215Y234318D01*
X470544Y233036D01*
X441778Y204269D01*
X425920D01*
X423832Y203994D01*
X421885Y203188D01*
X420214Y201906D01*
X418932Y200235D01*
X418126Y198288D01*
X417851Y196200D01*
X418126Y194112D01*
X418932Y192166D01*
X420214Y190494D01*
X421885Y189212D01*
X423832Y188406D01*
X425920Y188131D01*
X445120D01*
X447208Y188406D01*
X449155Y189212D01*
X450826Y190494D01*
X481956Y221624D01*
X483238Y223295D01*
X484044Y225242D01*
X484319Y227330D01*
X484044Y229418D01*
X483238Y231364D01*
X481956Y233036D01*
X480285Y234318D01*
X478338Y235124D01*
X476250Y235399D01*
D02*
G37*
%LPD*%
D10*
X946912Y246077D02*
X1019048D01*
Y325579D01*
X946912D02*
X1019048D01*
X946912Y246077D02*
Y325579D01*
X290371Y443992D02*
X369873D01*
X290371D02*
Y516128D01*
X369873D01*
Y443992D02*
Y516128D01*
X762762Y252428D02*
Y331929D01*
X834898D01*
Y252428D02*
Y331929D01*
X762762Y252428D02*
X834898D01*
X578358Y339901D02*
Y419403D01*
X506222Y339901D02*
X578358D01*
X506222D02*
Y419403D01*
X578358D01*
D11*
X941190Y459040D02*
X1023190D01*
X941190Y435040D02*
Y459040D01*
Y435040D02*
X1023190D01*
Y459040D01*
X940810Y393130D02*
X1022810D01*
Y417130D01*
X940810D02*
X1022810D01*
X940810Y393130D02*
Y417130D01*
X941880Y371410D02*
X1023880D01*
X941880Y347410D02*
Y371410D01*
Y347410D02*
X1023880D01*
Y371410D01*
X775330Y33580D02*
Y112580D01*
X776330Y113580D01*
X949330D01*
Y33580D02*
Y113580D01*
X775330Y33580D02*
X949330D01*
X773790Y973370D02*
X895604D01*
Y893370D02*
Y973370D01*
X772790Y893370D02*
Y972370D01*
Y893370D02*
X895604D01*
X774446Y433790D02*
X896260D01*
X774446D02*
Y513790D01*
X897260Y434790D02*
Y513790D01*
X774446D02*
X897260D01*
X331216Y705570D02*
X453030D01*
X331216D02*
Y785570D01*
X454030Y706570D02*
Y785570D01*
X331216D02*
X454030D01*
X266000Y246810D02*
Y328810D01*
X242000D02*
X266000D01*
X242000Y246810D02*
Y328810D01*
Y246810D02*
X266000D01*
X104050Y256240D02*
X188050D01*
Y148990D02*
Y256240D01*
X104050Y148990D02*
X188050D01*
X104050D02*
Y256240D01*
X278250Y565720D02*
X360250D01*
X278250Y541720D02*
Y565720D01*
Y541720D02*
X360250D01*
Y565720D01*
X529710Y699070D02*
X611710D01*
X529710Y675070D02*
Y699070D01*
Y675070D02*
X611710D01*
Y699070D01*
X194740Y672530D02*
X276740D01*
Y696530D01*
X194740D02*
X276740D01*
X194740Y672530D02*
Y696530D01*
X529710Y762570D02*
X611710D01*
X529710Y738570D02*
Y762570D01*
Y738570D02*
X611710D01*
Y762570D01*
X295450Y399350D02*
X377450D01*
X295450Y375350D02*
Y399350D01*
Y375350D02*
X377450D01*
Y399350D01*
X196010Y738570D02*
X278010D01*
Y762570D01*
X196010D02*
X278010D01*
X196010Y738570D02*
Y762570D01*
X78988Y34010D02*
Y124010D01*
Y125010D02*
X223988D01*
X223988Y34010D02*
Y124010D01*
X78988Y34010D02*
X223988D01*
X78988Y124010D02*
X138988D01*
X874470Y601340D02*
Y827024D01*
X795470Y601340D02*
X874470D01*
X794470Y827024D02*
X874470D01*
X794470Y602340D02*
Y827024D01*
X977350Y547730D02*
Y669544D01*
X1057350D01*
X978350Y546730D02*
X1057350D01*
Y669544D01*
X972270Y721720D02*
Y843534D01*
X1052270D01*
X973270Y720720D02*
X1052270D01*
Y843534D01*
D12*
X295920Y253200D02*
X296920D01*
X295920Y14200D02*
Y253200D01*
Y14200D02*
X455920D01*
Y253200D01*
X295920D02*
X455920D01*
X501190Y253850D02*
X502190D01*
X501190Y14850D02*
Y253850D01*
Y14850D02*
X661190D01*
Y253850D01*
X501190D02*
X661190D01*
D13*
X1005190Y451040D02*
Y441043D01*
X1000192D01*
X998525Y442709D01*
Y446042D01*
X1000192Y447708D01*
X1005190D01*
X1001858D02*
X998525Y451040D01*
X988529D02*
X995193D01*
X988529Y444375D01*
Y442709D01*
X990195Y441043D01*
X993527D01*
X995193Y442709D01*
X958810Y401130D02*
Y411127D01*
X963808D01*
X965474Y409461D01*
Y406128D01*
X963808Y404462D01*
X958810D01*
X962142D02*
X965474Y401130D01*
X968807D02*
X972139D01*
X970473D01*
Y411127D01*
X968807Y409461D01*
X977137Y401130D02*
X980470D01*
X978804D01*
Y411127D01*
X977137Y409461D01*
X1005880Y363410D02*
Y353413D01*
X1000882D01*
X999215Y355079D01*
Y358412D01*
X1000882Y360078D01*
X1005880D01*
X1002548D02*
X999215Y363410D01*
X995883D02*
X992551D01*
X994217D01*
Y353413D01*
X995883Y355079D01*
X980888Y363410D02*
X987553D01*
X980888Y356745D01*
Y355079D01*
X982554Y353413D01*
X985886D01*
X987553Y355079D01*
X258000Y264810D02*
X248003D01*
Y269808D01*
X249669Y271474D01*
X253002D01*
X254668Y269808D01*
Y264810D01*
Y268142D02*
X258000Y271474D01*
Y279805D02*
X248003D01*
X253002Y274807D01*
Y281471D01*
X342250Y557720D02*
Y547723D01*
X337252D01*
X335586Y549389D01*
Y552722D01*
X337252Y554388D01*
X342250D01*
X338918D02*
X335586Y557720D01*
X332253D02*
X328921D01*
X330587D01*
Y547723D01*
X332253Y549389D01*
X593710Y691070D02*
Y681073D01*
X588712D01*
X587046Y682739D01*
Y686072D01*
X588712Y687738D01*
X593710D01*
X590378D02*
X587046Y691070D01*
X583713Y681073D02*
X577049D01*
Y682739D01*
X583713Y689404D01*
Y691070D01*
X212740Y680530D02*
Y690527D01*
X217738D01*
X219405Y688861D01*
Y685528D01*
X217738Y683862D01*
X212740D01*
X216072D02*
X219405Y680530D01*
X229401Y690527D02*
X222737D01*
Y685528D01*
X226069Y687195D01*
X227735D01*
X229401Y685528D01*
Y682196D01*
X227735Y680530D01*
X224403D01*
X222737Y682196D01*
X593710Y754570D02*
Y744573D01*
X588712D01*
X587046Y746239D01*
Y749572D01*
X588712Y751238D01*
X593710D01*
X590378D02*
X587046Y754570D01*
X577049Y744573D02*
X580381Y746239D01*
X583713Y749572D01*
Y752904D01*
X582047Y754570D01*
X578715D01*
X577049Y752904D01*
Y751238D01*
X578715Y749572D01*
X583713D01*
X359450Y391350D02*
Y381353D01*
X354452D01*
X352785Y383019D01*
Y386352D01*
X354452Y388018D01*
X359450D01*
X356118D02*
X352785Y391350D01*
X349453Y383019D02*
X347787Y381353D01*
X344455D01*
X342789Y383019D01*
Y384686D01*
X344455Y386352D01*
X346121D01*
X344455D01*
X342789Y388018D01*
Y389684D01*
X344455Y391350D01*
X347787D01*
X349453Y389684D01*
X214010Y746570D02*
Y756567D01*
X219008D01*
X220674Y754901D01*
Y751568D01*
X219008Y749902D01*
X214010D01*
X217342D02*
X220674Y746570D01*
X224007Y754901D02*
X225673Y756567D01*
X229005D01*
X230671Y754901D01*
Y753234D01*
X229005Y751568D01*
X230671Y749902D01*
Y748236D01*
X229005Y746570D01*
X225673D01*
X224007Y748236D01*
Y749902D01*
X225673Y751568D01*
X224007Y753234D01*
Y754901D01*
X225673Y751568D02*
X229005D01*
D14*
X999472Y301169D02*
Y309499D01*
Y305334D01*
X978645D01*
X974480Y309499D01*
Y313665D01*
X978645Y317830D01*
X974480Y292838D02*
Y284507D01*
Y288673D01*
X999472D01*
X995307Y292838D01*
X974480Y272012D02*
Y263681D01*
Y267846D01*
X999472D01*
X995307Y272012D01*
X314781Y496552D02*
X306451D01*
X310616D01*
Y475725D01*
X306451Y471560D01*
X302285D01*
X298120Y475725D01*
X339773Y471560D02*
X323112D01*
X339773Y488221D01*
Y492387D01*
X335608Y496552D01*
X327277D01*
X323112Y492387D01*
X299920Y228200D02*
Y243195D01*
X307418D01*
X309917Y240696D01*
Y235698D01*
X307418Y233198D01*
X299920D01*
X304918D02*
X309917Y228200D01*
X314915D02*
X319914D01*
X317414D01*
Y243195D01*
X314915Y240696D01*
X327411D02*
X329910Y243195D01*
X334909D01*
X337408Y240696D01*
Y230699D01*
X334909Y228200D01*
X329910D01*
X327411Y230699D01*
Y240696D01*
X505190Y228850D02*
Y243845D01*
X512688D01*
X515187Y241346D01*
Y236348D01*
X512688Y233848D01*
X505190D01*
X510188D02*
X515187Y228850D01*
X520185Y231349D02*
X522684Y228850D01*
X527683D01*
X530182Y231349D01*
Y241346D01*
X527683Y243845D01*
X522684D01*
X520185Y241346D01*
Y238847D01*
X522684Y236348D01*
X530182D01*
X815322Y307519D02*
Y315849D01*
Y311684D01*
X794495D01*
X790330Y315849D01*
Y320015D01*
X794495Y324180D01*
Y299188D02*
X790330Y295023D01*
Y286692D01*
X794495Y282527D01*
X811157D01*
X815322Y286692D01*
Y295023D01*
X811157Y299188D01*
X806991D01*
X802826Y295023D01*
Y282527D01*
X525798Y364311D02*
Y355981D01*
Y360146D01*
X546625D01*
X550790Y355981D01*
Y351815D01*
X546625Y347650D01*
X550790Y372642D02*
Y380973D01*
Y376807D01*
X525798D01*
X529963Y372642D01*
Y393469D02*
X525798Y397634D01*
Y405965D01*
X529963Y410130D01*
X546625D01*
X550790Y405965D01*
Y397634D01*
X546625Y393469D01*
X529963D01*
D15*
X627697Y639784D02*
X636028Y648114D01*
X652689D01*
X661020Y639784D01*
Y606461D01*
X652689Y598131D01*
X636028D01*
X627697Y606461D01*
X602705Y598131D02*
X586044D01*
X577714Y606461D01*
Y623122D01*
X586044Y631453D01*
X602705D01*
X611036Y623122D01*
Y606461D01*
X602705Y598131D01*
X527730Y648114D02*
Y598131D01*
X552722D01*
X561052Y606461D01*
Y623122D01*
X552722Y631453D01*
X527730D01*
X502738D02*
X486077D01*
X477746Y623122D01*
Y598131D01*
X502738D01*
X511068Y606461D01*
X502738Y614792D01*
X477746D01*
X661020Y571334D02*
Y521350D01*
X636028D01*
X627697Y529681D01*
Y563003D01*
X636028Y571334D01*
X661020D01*
X586044Y521350D02*
Y571334D01*
X611036Y546342D01*
X577714D01*
X527730Y563003D02*
X536060Y571334D01*
X552722D01*
X561052Y563003D01*
Y529681D01*
X552722Y521350D01*
X536060D01*
X527730Y529681D01*
X865360Y50265D02*
X880355D01*
X872857D01*
Y87752D01*
X880355Y95250D01*
X887852D01*
X895350Y87752D01*
X850365Y57762D02*
X842867Y50265D01*
X827872D01*
X820374Y57762D01*
Y65260D01*
X827872Y72757D01*
X820374Y80255D01*
Y87752D01*
X827872Y95250D01*
X842867D01*
X850365Y87752D01*
Y80255D01*
X842867Y72757D01*
X850365Y65260D01*
Y57762D01*
X842867Y72757D02*
X827872D01*
X842754Y907768D02*
X857749D01*
X850251D01*
Y945256D01*
X857749Y952754D01*
X865246D01*
X872744Y945256D01*
X827758Y952754D02*
X812763D01*
X820261D01*
Y907768D01*
X827758Y915266D01*
X760280Y952754D02*
X790271D01*
X760280Y922764D01*
Y915266D01*
X767778Y907768D01*
X782773D01*
X790271Y915266D01*
X827296Y499392D02*
X812301D01*
X819799D01*
Y461904D01*
X812301Y454406D01*
X804804D01*
X797306Y461904D01*
X864784Y454406D02*
Y499392D01*
X842291Y476899D01*
X872282D01*
X384066Y771171D02*
X369071D01*
X376569D01*
Y733684D01*
X369071Y726186D01*
X361574D01*
X354076Y733684D01*
X399062Y763674D02*
X406559Y771171D01*
X421554D01*
X429052Y763674D01*
Y756176D01*
X421554Y748679D01*
X414057D01*
X421554D01*
X429052Y741181D01*
Y733684D01*
X421554Y726186D01*
X406559D01*
X399062Y733684D01*
X860455Y671350D02*
Y686345D01*
Y678847D01*
X822968D01*
X815470Y686345D01*
Y693842D01*
X822968Y701340D01*
X860455Y626364D02*
X852958Y641359D01*
X837963Y656355D01*
X822968D01*
X815470Y648857D01*
Y633862D01*
X822968Y626364D01*
X830465D01*
X837963Y633862D01*
Y656355D01*
X1042952Y616694D02*
Y631689D01*
Y624191D01*
X1005464D01*
X997966Y631689D01*
Y639186D01*
X1005464Y646684D01*
X1042952Y571708D02*
Y601698D01*
X1020459D01*
X1027956Y586703D01*
Y579206D01*
X1020459Y571708D01*
X1005464D01*
X997966Y579206D01*
Y594201D01*
X1005464Y601698D01*
X1037871Y790684D02*
Y805679D01*
Y798181D01*
X1000384D01*
X992886Y805679D01*
Y813176D01*
X1000384Y820674D01*
X1037871Y775688D02*
Y745698D01*
X1030374D01*
X1000384Y775688D01*
X992886D01*
D16*
X121550Y223980D02*
X141544D01*
X131547D01*
Y193990D01*
X151540Y223980D02*
Y193990D01*
X166535D01*
X171534Y198988D01*
Y203987D01*
X166535Y208985D01*
X151540D01*
X166535D01*
X171534Y213983D01*
Y218982D01*
X166535Y223980D01*
X151540D01*
X181531Y193990D02*
X191527D01*
X186529D01*
Y223980D01*
X181531Y218982D01*
X99998Y82003D02*
Y72007D01*
Y77005D01*
X124990D01*
X129988Y72007D01*
Y67008D01*
X124990Y62010D01*
X129988Y92000D02*
Y101997D01*
Y96999D01*
X99998D01*
X104996Y92000D01*
D30*
X962406Y298704D02*
X962429D01*
X915670Y345440D02*
Y435610D01*
X962429Y298704D02*
X970280Y290853D01*
Y141430D02*
Y290853D01*
X915670Y345440D02*
X962406Y298704D01*
X927100Y447040D02*
X944190D01*
X915670Y435610D02*
X927100Y447040D01*
X1020000Y405320D02*
Y446850D01*
X1020190Y447040D01*
X1019810Y405130D02*
X1020000Y405320D01*
X944345Y359945D02*
X944880Y359410D01*
X944345Y359945D02*
Y404595D01*
X943810Y405130D02*
X944345Y404595D01*
X1020880Y319030D02*
Y359410D01*
X995680Y293830D02*
X1020880Y319030D01*
X995680Y290830D02*
Y293830D01*
X900430Y71580D02*
X970280Y141430D01*
X995680D02*
Y290830D01*
X925830Y71580D02*
X995680Y141430D01*
X299826Y387350D02*
X302598Y390122D01*
Y391498D01*
X298450Y387350D02*
X299826D01*
X302598Y391498D02*
X325120Y414020D01*
Y467360D01*
X281250Y553720D02*
X302260D01*
X325120Y492760D02*
Y530860D01*
X302260Y553720D02*
X325120Y530860D01*
X172710Y553720D02*
X281250D01*
X129540Y416550D02*
X158740Y387350D01*
X298450D01*
X129540Y510550D02*
X172710Y553720D01*
X172375Y326735D02*
X253075D01*
X254000Y325810D01*
X171450Y327660D02*
X172375Y326735D01*
X1014270Y820420D02*
X1017270D01*
X425920Y196200D02*
X445120D01*
X476250Y227330D01*
X509270Y374650D02*
X529590D01*
X375920Y196200D02*
Y241300D01*
X509270Y374650D01*
X379730Y726440D02*
Y750570D01*
X273740Y684530D02*
X337820D01*
X379730Y726440D01*
Y750570D02*
Y787400D01*
X236610Y891150D02*
X354330Y773430D01*
Y750570D02*
Y773430D01*
X147320Y891150D02*
X236610D01*
X430530Y750570D02*
Y772160D01*
X550790Y892420D01*
X632460D01*
X308610Y858520D02*
Y892810D01*
Y858520D02*
X379730Y787400D01*
X405130Y789940D02*
X469900Y854710D01*
Y892810D01*
X405130Y750570D02*
Y789940D01*
X784860Y794374D02*
Y849630D01*
X821690Y886460D02*
Y928370D01*
X784860Y849630D02*
X821690Y886460D01*
X784860Y794374D02*
X801994Y777240D01*
X839470D01*
Y877570D02*
X847090Y885190D01*
X839470Y802640D02*
Y877570D01*
X847090Y885190D02*
Y928370D01*
X886460Y751840D02*
X929640Y795020D01*
X1017270D01*
X839470Y751840D02*
X886460D01*
X894080Y726440D02*
X937260Y769620D01*
X839470Y726440D02*
X894080D01*
X937260Y769620D02*
X1017270D01*
X875030Y675640D02*
X955040Y595630D01*
X1022350D01*
X839470Y675640D02*
X875030D01*
X878840Y701040D02*
X958850Y621030D01*
X1022350D01*
X839470Y701040D02*
X878840D01*
X839470Y554990D02*
Y624840D01*
Y554990D02*
X848360Y546100D01*
Y478790D02*
Y546100D01*
X786130Y633730D02*
X802640Y650240D01*
X786130Y577850D02*
Y633730D01*
Y577850D02*
X822960Y541020D01*
X802640Y650240D02*
X839470D01*
X822960Y478790D02*
Y541020D01*
X849630Y68580D02*
Y97790D01*
X786130Y161290D02*
Y297180D01*
Y161290D02*
X849630Y97790D01*
X811530Y161290D02*
X875030Y97790D01*
Y68580D02*
Y97790D01*
X811530Y161290D02*
Y297180D01*
X554990Y345440D02*
Y374650D01*
Y345440D02*
X581190Y319240D01*
Y196850D02*
Y319240D01*
X925830Y68580D02*
Y71580D01*
X900430Y68580D02*
Y71580D01*
X430530Y750570D02*
X532710D01*
X405130Y744656D02*
X462716Y687070D01*
X405130Y744656D02*
Y750570D01*
X462716Y687070D02*
X532710D01*
X275010Y750570D02*
X354330D01*
D31*
X1020190Y447040D02*
D03*
X944190D02*
D03*
X943810Y405130D02*
D03*
X1019810D02*
D03*
X1020880Y359410D02*
D03*
X944880D02*
D03*
X357250Y553720D02*
D03*
X281250D02*
D03*
X608710Y687070D02*
D03*
X532710D02*
D03*
X197740Y684530D02*
D03*
X273740D02*
D03*
X608710Y750570D02*
D03*
X532710D02*
D03*
X374450Y387350D02*
D03*
X298450D02*
D03*
X199010Y750570D02*
D03*
X275010D02*
D03*
D32*
X970280Y290830D02*
D03*
X824230Y68580D02*
D03*
X849630D02*
D03*
X875030D02*
D03*
X900430D02*
D03*
X925830D02*
D03*
X821690Y928370D02*
D03*
X847090D02*
D03*
X872490D02*
D03*
X848360Y478790D02*
D03*
X822960D02*
D03*
X797560D02*
D03*
X405130Y750570D02*
D03*
X379730D02*
D03*
X354330D02*
D03*
X786130Y297180D02*
D03*
X554990Y374650D02*
D03*
D33*
X995680Y290830D02*
D03*
X798830Y68580D02*
D03*
X796290Y928370D02*
D03*
X873760Y478790D02*
D03*
X430530Y750570D02*
D03*
X811530Y297180D02*
D03*
X529590Y374650D02*
D03*
D34*
X129540Y510550D02*
D03*
X177540D02*
D03*
X129540Y463550D02*
D03*
Y416550D02*
D03*
X177540Y463550D02*
D03*
Y416550D02*
D03*
X308610Y947810D02*
D03*
Y892810D02*
D03*
X147320Y946150D02*
D03*
Y891150D02*
D03*
X632460Y947420D02*
D03*
Y892420D02*
D03*
X469900Y947810D02*
D03*
Y892810D02*
D03*
X187988Y33010D02*
D03*
X217988Y80010D02*
D03*
X157988D02*
D03*
D35*
X171450Y327660D02*
D03*
D36*
X146050D02*
D03*
D37*
X325120Y492760D02*
D03*
X839470Y624840D02*
D03*
X1022350Y570230D02*
D03*
X1017270Y744220D02*
D03*
D38*
X325120Y467360D02*
D03*
X839470Y726440D02*
D03*
Y701040D02*
D03*
Y675640D02*
D03*
Y650240D02*
D03*
Y751840D02*
D03*
Y777240D02*
D03*
Y802640D02*
D03*
X1022350Y595630D02*
D03*
Y621030D02*
D03*
Y646430D02*
D03*
X1017270Y769620D02*
D03*
Y795020D02*
D03*
Y820420D02*
D03*
D39*
X325920Y196200D02*
D03*
X425920D02*
D03*
X375920D02*
D03*
X531190Y196850D02*
D03*
X631190D02*
D03*
X581190D02*
D03*
D40*
X254000Y249810D02*
D03*
Y325810D02*
D03*
D41*
X146050Y230740D02*
D03*
D42*
Y180740D02*
D03*
D43*
X885190Y862330D02*
D03*
X717550D02*
D03*
X619760Y336550D02*
D03*
X946150Y859790D02*
D03*
Y711200D02*
D03*
X476250Y227330D02*
D03*
D44*
X966470Y20320D02*
X1056640Y110490D01*
X1022350Y570230D02*
X1056640Y535940D01*
Y110490D02*
Y535940D01*
X1022350Y570230D02*
X1052830D01*
X1015850D02*
X1022350D01*
X798830Y44450D02*
X822960Y20320D01*
X966470D01*
X935990Y570230D02*
X1015850D01*
X68580Y867410D02*
X147320Y946150D01*
X101600Y463550D02*
X129540D01*
X68580Y430530D02*
X68580Y430530D01*
X68580Y430530D02*
Y867410D01*
X68580Y430530D02*
X101600Y463550D01*
X147320Y946980D02*
X307780D01*
X68580Y353060D02*
Y430530D01*
Y353060D02*
X93980Y327660D01*
X146050D01*
X531190Y136830D02*
Y196850D01*
X150050Y230740D02*
X157050Y223740D01*
Y219740D02*
X217988Y158802D01*
X146050Y230740D02*
X150050D01*
X157050Y219740D02*
Y223740D01*
X217988Y80010D02*
Y158802D01*
X146050Y230740D02*
Y327660D01*
X470095Y947615D02*
X746073D01*
X765318Y928370D01*
X796290D01*
X1017270Y720090D02*
Y744220D01*
Y720090D02*
X1064260Y673100D01*
Y581660D02*
Y673100D01*
X1052830Y570230D02*
X1064260Y581660D01*
X873760Y478790D02*
Y508000D01*
X935990Y570230D01*
X798830Y44450D02*
Y68580D01*
X531190Y136830D02*
X599440Y68580D01*
X527388Y193048D02*
X531190Y196850D01*
X450843Y144780D02*
X499110Y193048D01*
X351790Y144780D02*
X450843D01*
X499110Y193048D02*
X527388D01*
X325920Y170650D02*
Y196200D01*
Y170650D02*
X351790Y144780D01*
X217988Y158802D02*
X255386Y196200D01*
X325920D01*
X599440Y68580D02*
X798830D01*
X307780Y946980D02*
X308610Y947810D01*
X469900D01*
X470095Y947615D01*
D45*
X482357Y460930D02*
X472360Y470927D01*
X482357Y480924D01*
X499018Y460930D02*
X492354Y467594D01*
Y474259D01*
X499018Y480924D01*
X512347Y484256D02*
Y477591D01*
X509015Y474259D01*
X522344Y467594D02*
X535673D01*
X522344Y474259D02*
X535673D01*
X562331D02*
Y464262D01*
X565663Y460930D01*
X568996Y464262D01*
X572328Y460930D01*
X575660Y464262D01*
Y474259D01*
X602318Y467594D02*
X615647D01*
X602318Y474259D02*
X615647D01*
X625644Y484256D02*
Y477591D01*
X622312Y474259D01*
X635641Y460930D02*
X642305Y467594D01*
Y474259D01*
X635641Y480924D01*
X652302Y460930D02*
X662299Y470927D01*
X652302Y480924D01*
M02*
